<mxfile host="Electron" modified="2024-07-27T09:33:26.792Z" agent="Mozilla/5.0 (X11; Linux x86_64) AppleWebKit/537.36 (KHTML, like Gecko) draw.io/24.6.4 Chrome/124.0.6367.243 Electron/30.3.1 Safari/537.36" etag="x7Ipw6gV4snhH7a4384b" version="24.6.4" type="device">
  <diagram name="Page-1" id="mg2RzPKXRJ4TFj_A5Iuv">
    <mxGraphModel dx="2049" dy="1296" grid="1" gridSize="10" guides="1" tooltips="1" connect="1" arrows="1" fold="1" page="1" pageScale="1" pageWidth="827" pageHeight="1169" math="0" shadow="0">
      <root>
        <mxCell id="0" />
        <mxCell id="1" parent="0" />
        <mxCell id="pCPzi6bB_XNPrD2KSU7M-1" value="Painter" style="swimlane;whiteSpace=wrap;html=1;" vertex="1" parent="1">
          <mxGeometry x="114" y="140" width="240" height="680" as="geometry" />
        </mxCell>
        <mxCell id="pCPzi6bB_XNPrD2KSU7M-24" value="" style="ellipse;html=1;shape=endState;fillColor=#000000;strokeColor=#ff0000;" vertex="1" parent="pCPzi6bB_XNPrD2KSU7M-1">
          <mxGeometry x="105" y="600" width="30" height="30" as="geometry" />
        </mxCell>
        <mxCell id="pCPzi6bB_XNPrD2KSU7M-26" value="" style="ellipse;html=1;shape=startState;fillColor=#000000;strokeColor=#ff0000;" vertex="1" parent="pCPzi6bB_XNPrD2KSU7M-1">
          <mxGeometry x="105" y="35" width="30" height="30" as="geometry" />
        </mxCell>
        <mxCell id="pCPzi6bB_XNPrD2KSU7M-27" value="" style="edgeStyle=orthogonalEdgeStyle;html=1;verticalAlign=bottom;endArrow=open;endSize=8;strokeColor=#ff0000;rounded=0;entryX=0.5;entryY=0;entryDx=0;entryDy=0;" edge="1" source="pCPzi6bB_XNPrD2KSU7M-26" parent="pCPzi6bB_XNPrD2KSU7M-1">
          <mxGeometry relative="1" as="geometry">
            <mxPoint x="120" y="110" as="targetPoint" />
          </mxGeometry>
        </mxCell>
        <mxCell id="pCPzi6bB_XNPrD2KSU7M-34" value="Print Credit Payment Reports" style="rounded=1;whiteSpace=wrap;html=1;" vertex="1" parent="pCPzi6bB_XNPrD2KSU7M-1">
          <mxGeometry x="60" y="110" width="120" height="60" as="geometry" />
        </mxCell>
        <mxCell id="pCPzi6bB_XNPrD2KSU7M-2" value="FCP System" style="swimlane;whiteSpace=wrap;html=1;fontColor=#000000;" vertex="1" parent="1">
          <mxGeometry x="354" y="140" width="360" height="680" as="geometry" />
        </mxCell>
        <mxCell id="pCPzi6bB_XNPrD2KSU7M-53" style="edgeStyle=orthogonalEdgeStyle;rounded=0;orthogonalLoop=1;jettySize=auto;html=1;entryX=0.5;entryY=0;entryDx=0;entryDy=0;" edge="1" parent="pCPzi6bB_XNPrD2KSU7M-2" source="pCPzi6bB_XNPrD2KSU7M-37" target="pCPzi6bB_XNPrD2KSU7M-38">
          <mxGeometry relative="1" as="geometry" />
        </mxCell>
        <mxCell id="pCPzi6bB_XNPrD2KSU7M-37" value="Check if user have made any transaction before" style="rounded=1;whiteSpace=wrap;html=1;" vertex="1" parent="pCPzi6bB_XNPrD2KSU7M-2">
          <mxGeometry x="92" y="110" width="120" height="60" as="geometry" />
        </mxCell>
        <mxCell id="pCPzi6bB_XNPrD2KSU7M-47" style="edgeStyle=orthogonalEdgeStyle;rounded=0;orthogonalLoop=1;jettySize=auto;html=1;entryX=0.5;entryY=0;entryDx=0;entryDy=0;endArrow=none;endFill=0;" edge="1" parent="pCPzi6bB_XNPrD2KSU7M-2" source="pCPzi6bB_XNPrD2KSU7M-38" target="pCPzi6bB_XNPrD2KSU7M-39">
          <mxGeometry relative="1" as="geometry" />
        </mxCell>
        <mxCell id="pCPzi6bB_XNPrD2KSU7M-56" style="edgeStyle=orthogonalEdgeStyle;rounded=0;orthogonalLoop=1;jettySize=auto;html=1;" edge="1" parent="pCPzi6bB_XNPrD2KSU7M-2" source="pCPzi6bB_XNPrD2KSU7M-38" target="pCPzi6bB_XNPrD2KSU7M-54">
          <mxGeometry relative="1" as="geometry" />
        </mxCell>
        <mxCell id="pCPzi6bB_XNPrD2KSU7M-38" value="If user has made a transaction before" style="rhombus;whiteSpace=wrap;html=1;" vertex="1" parent="pCPzi6bB_XNPrD2KSU7M-2">
          <mxGeometry x="94" y="210" width="116" height="100" as="geometry" />
        </mxCell>
        <mxCell id="pCPzi6bB_XNPrD2KSU7M-48" style="edgeStyle=orthogonalEdgeStyle;rounded=0;orthogonalLoop=1;jettySize=auto;html=1;entryX=0.5;entryY=0;entryDx=0;entryDy=0;" edge="1" parent="pCPzi6bB_XNPrD2KSU7M-2" source="pCPzi6bB_XNPrD2KSU7M-39" target="pCPzi6bB_XNPrD2KSU7M-40">
          <mxGeometry relative="1" as="geometry" />
        </mxCell>
        <mxCell id="pCPzi6bB_XNPrD2KSU7M-39" value="For Each Transaction" style="rounded=0;whiteSpace=wrap;html=1;fontColor=#FFFFFF;labelBackgroundColor=#000000;fillColor=#000000;" vertex="1" parent="pCPzi6bB_XNPrD2KSU7M-2">
          <mxGeometry x="92" y="370" width="120" height="20" as="geometry" />
        </mxCell>
        <mxCell id="pCPzi6bB_XNPrD2KSU7M-49" style="edgeStyle=orthogonalEdgeStyle;rounded=0;orthogonalLoop=1;jettySize=auto;html=1;entryX=0.5;entryY=0;entryDx=0;entryDy=0;endArrow=none;endFill=0;" edge="1" parent="pCPzi6bB_XNPrD2KSU7M-2" source="pCPzi6bB_XNPrD2KSU7M-40" target="pCPzi6bB_XNPrD2KSU7M-41">
          <mxGeometry relative="1" as="geometry" />
        </mxCell>
        <mxCell id="pCPzi6bB_XNPrD2KSU7M-40" value="Print Transaction Details." style="rounded=1;whiteSpace=wrap;html=1;" vertex="1" parent="pCPzi6bB_XNPrD2KSU7M-2">
          <mxGeometry x="92" y="430" width="120" height="60" as="geometry" />
        </mxCell>
        <mxCell id="pCPzi6bB_XNPrD2KSU7M-41" value="End For" style="rounded=0;whiteSpace=wrap;html=1;labelBackgroundColor=#000000;fillColor=#000000;fontColor=#FFFFFF;" vertex="1" parent="pCPzi6bB_XNPrD2KSU7M-2">
          <mxGeometry x="92" y="530" width="120" height="20" as="geometry" />
        </mxCell>
        <mxCell id="pCPzi6bB_XNPrD2KSU7M-54" value="Prompt user that he has not made any Payments" style="rounded=1;whiteSpace=wrap;html=1;" vertex="1" parent="pCPzi6bB_XNPrD2KSU7M-2">
          <mxGeometry x="220" y="585" width="120" height="60" as="geometry" />
        </mxCell>
        <mxCell id="pCPzi6bB_XNPrD2KSU7M-57" value="No" style="text;html=1;align=center;verticalAlign=middle;resizable=0;points=[];autosize=1;strokeColor=none;fillColor=none;" vertex="1" parent="pCPzi6bB_XNPrD2KSU7M-2">
          <mxGeometry x="200" y="240" width="40" height="30" as="geometry" />
        </mxCell>
        <mxCell id="pCPzi6bB_XNPrD2KSU7M-58" value="Yes" style="text;html=1;align=center;verticalAlign=middle;resizable=0;points=[];autosize=1;strokeColor=none;fillColor=none;" vertex="1" parent="pCPzi6bB_XNPrD2KSU7M-2">
          <mxGeometry x="120" y="300" width="40" height="30" as="geometry" />
        </mxCell>
        <mxCell id="pCPzi6bB_XNPrD2KSU7M-43" style="edgeStyle=orthogonalEdgeStyle;rounded=0;orthogonalLoop=1;jettySize=auto;html=1;" edge="1" parent="1" source="pCPzi6bB_XNPrD2KSU7M-34" target="pCPzi6bB_XNPrD2KSU7M-37">
          <mxGeometry relative="1" as="geometry" />
        </mxCell>
        <mxCell id="pCPzi6bB_XNPrD2KSU7M-46" value="" style="ellipse;whiteSpace=wrap;html=1;aspect=fixed;fillColor=#e51400;fontColor=#ffffff;strokeColor=#B20000;" vertex="1" parent="1">
          <mxGeometry x="349" y="275" width="10" height="10" as="geometry" />
        </mxCell>
        <mxCell id="pCPzi6bB_XNPrD2KSU7M-50" style="edgeStyle=orthogonalEdgeStyle;rounded=0;orthogonalLoop=1;jettySize=auto;html=1;entryX=1;entryY=0.5;entryDx=0;entryDy=0;exitX=0.5;exitY=1;exitDx=0;exitDy=0;" edge="1" parent="1" source="pCPzi6bB_XNPrD2KSU7M-41" target="pCPzi6bB_XNPrD2KSU7M-24">
          <mxGeometry relative="1" as="geometry" />
        </mxCell>
        <mxCell id="pCPzi6bB_XNPrD2KSU7M-55" style="edgeStyle=orthogonalEdgeStyle;rounded=0;orthogonalLoop=1;jettySize=auto;html=1;entryX=1;entryY=0.5;entryDx=0;entryDy=0;" edge="1" parent="1" source="pCPzi6bB_XNPrD2KSU7M-54" target="pCPzi6bB_XNPrD2KSU7M-24">
          <mxGeometry relative="1" as="geometry" />
        </mxCell>
        <mxCell id="pCPzi6bB_XNPrD2KSU7M-60" value="" style="ellipse;whiteSpace=wrap;html=1;aspect=fixed;fillColor=#e51400;fontColor=#ffffff;strokeColor=#B20000;" vertex="1" parent="1">
          <mxGeometry x="349" y="750" width="10" height="10" as="geometry" />
        </mxCell>
        <object placeholders="1" c4Name="Activity Diagram" c4Type="ContainerDiagramTitle" c4Description="For the use case: Print Credit Payments Reports" label="&lt;font style=&quot;font-size: 16px&quot;&gt;&lt;b&gt;&lt;div style=&quot;text-align: left&quot;&gt;%c4Name%&lt;/div&gt;&lt;/b&gt;&lt;/font&gt;&lt;div style=&quot;text-align: left&quot;&gt;%c4Description%&lt;/div&gt;" id="pCPzi6bB_XNPrD2KSU7M-64">
          <mxCell style="text;html=1;strokeColor=none;fillColor=none;align=left;verticalAlign=top;whiteSpace=wrap;rounded=0;metaEdit=1;allowArrows=0;resizable=1;rotatable=0;connectable=0;recursiveResize=0;expand=0;pointerEvents=0;points=[[0.25,0,0],[0.5,0,0],[0.75,0,0],[1,0.25,0],[1,0.5,0],[1,0.75,0],[0.75,1,0],[0.5,1,0],[0.25,1,0],[0,0.75,0],[0,0.5,0],[0,0.25,0]];" vertex="1" parent="1">
            <mxGeometry x="300" y="50" width="260" height="40" as="geometry" />
          </mxCell>
        </object>
      </root>
    </mxGraphModel>
  </diagram>
</mxfile>
